# xmcd
#
# Track frame offsets:
#	150
#	17146
#	34407
#	51337
#	63818
#	82945
#	109635
#	131783
#	152905
#	169737
#	192699
#	215241
#	232316
#
# Disc length: 3291 seconds
#
# Revision: 0
# Processed by: cddbd v1.5.2PL0 Copyright (c) Steve Scherf et al.
# Submitted via: audiograbber 1.83.01
#
DISCID=c10cd90d
DTITLE=Livin' Blues Xperience - This Is The Time
DYEAR=2008
DGENRE=Blues
TTITLE0=It Was A Dream
TTITLE1=Jimmy
TTITLE2=Let It Happen
TTITLE3=God And The Devil
TTITLE4=Evil
TTITLE5=The Best Thing I Can Do
TTITLE6=Something Is Missing
TTITLE7=Too Many Chiefs
TTITLE8=Stealin'
TTITLE9=This Is The Time
TTITLE10=No Use Cryin'
TTITLE11=Fantasy
TTITLE12=Bla Bla Blues
EXTD=
EXTT0=
EXTT1=
EXTT2=
EXTT3=
EXTT4=
EXTT5=
EXTT6=
EXTT7=
EXTT8=
EXTT9=
EXTT10=
EXTT11=
EXTT12=
PLAYORDER=
